<svg xmlns="http://www.w3.org/2000/svg" viewBox="0 0 128 128" role="img" aria-label="EGHF icon">
  <defs>
    <linearGradient id="g" x1="0" y1="0" x2="1" y2="1">
      <stop offset="0" stop-color="#22c55e"/>
      <stop offset="1" stop-color="#0ea5e9"/>
    </linearGradient>
  </defs>
  <rect width="128" height="128" rx="28" fill="#0b1220"/>
  <path d="M64 16c18 0 36 10 46 24v36c-10 14-28 24-46 24S28 90 18 76V40c10-14 28-24 46-24Z" fill="url(#g)"/>
  <path d="M64 34c12 0 23 6 30 15v30c-7 9-18 15-30 15s-23-6-30-15V49c7-9 18-15 30-15Z" fill="rgba(255,255,255,0.16)"/>
  <path d="M64 44c5 0 10 2 13 5v30c-3 3-8 5-13 5s-10-2-13-5V49c3-3 8-5 13-5Z" fill="rgba(255,255,255,0.28)"/>
</svg>

